<svg width="522" height="155" xmlns="http://www.w3.org/2000/svg" xml:space="preserve" version="1.1">
 <defs>
  <linearGradient y2="0.02543" x2="0.50072" y1="1.15114" x1="0.50072" id="SVGID_1_">
   <stop stop-color="#0BC8D6" offset="0"/>
   <stop stop-color="#0BAFC9" offset="0.1537"/>
   <stop stop-color="#0C92BB" offset="0.3707"/>
   <stop stop-color="#0C7DB0" offset="0.5863"/>
   <stop stop-color="#0C70AA" offset="0.7977"/>
   <stop stop-color="#0C6CA8" offset="1"/>
  </linearGradient>
  <linearGradient y2="0.03017" x2="0.49923" y1="1.14279" x1="0.49923" id="SVGID_00000127021514121879198480000013189164304632274339_">
   <stop stop-color="#0BC8D6" offset="0"/>
   <stop stop-color="#0BAFC9" offset="0.1537"/>
   <stop stop-color="#0C92BB" offset="0.3707"/>
   <stop stop-color="#0C7DB0" offset="0.5863"/>
   <stop stop-color="#0C70AA" offset="0.7977"/>
   <stop stop-color="#0C6CA8" offset="1"/>
  </linearGradient>
  <linearGradient y2="0.02535" x2="0.49932" y1="1.14996" x1="0.49932" id="SVGID_00000043429658796123182940000015889387677703694244_">
   <stop stop-color="#0BC8D6" offset="0"/>
   <stop stop-color="#0BAFC9" offset="0.1537"/>
   <stop stop-color="#0C92BB" offset="0.3707"/>
   <stop stop-color="#0C7DB0" offset="0.5863"/>
   <stop stop-color="#0C70AA" offset="0.7977"/>
   <stop stop-color="#0C6CA8" offset="1"/>
  </linearGradient>
  <linearGradient y2="0.02945" x2="0.50079" y1="1.13512" x1="0.50079" id="SVGID_00000138573542573498750930000010149306291371588497_">
   <stop stop-color="#0BC8D6" offset="0"/>
   <stop stop-color="#0BAFC9" offset="0.1537"/>
   <stop stop-color="#0C92BB" offset="0.3707"/>
   <stop stop-color="#0C7DB0" offset="0.5863"/>
   <stop stop-color="#0C70AA" offset="0.7977"/>
   <stop stop-color="#0C6CA8" offset="1"/>
  </linearGradient>
  <linearGradient y2="0.02314" x2="0.50035" y1="1.15149" x1="0.50035" id="SVGID_00000139270942901625426820000001404326870562126223_">
   <stop stop-color="#0BC8D6" offset="0"/>
   <stop stop-color="#0BAFC9" offset="0.1537"/>
   <stop stop-color="#0C92BB" offset="0.3707"/>
   <stop stop-color="#0C7DB0" offset="0.5863"/>
   <stop stop-color="#0C70AA" offset="0.7977"/>
   <stop stop-color="#0C6CA8" offset="1"/>
  </linearGradient>
  <linearGradient y2="0.03606" x2="0.49894" y1="1.13674" x1="0.49894" id="SVGID_00000068646554504452817860000003528896524159501710_">
   <stop stop-color="#0BC8D6" offset="0"/>
   <stop stop-color="#0BAFC9" offset="0.1537"/>
   <stop stop-color="#0C92BB" offset="0.3707"/>
   <stop stop-color="#0C7DB0" offset="0.5863"/>
   <stop stop-color="#0C70AA" offset="0.7977"/>
   <stop stop-color="#0C6CA8" offset="1"/>
  </linearGradient>
  <linearGradient y2="0.02535" x2="0.49911" y1="1.14996" x1="0.49911" id="SVGID_00000162344037112188654420000002237572394263877530_">
   <stop stop-color="#0BC8D6" offset="0"/>
   <stop stop-color="#0BAFC9" offset="0.1537"/>
   <stop stop-color="#0C92BB" offset="0.3707"/>
   <stop stop-color="#0C7DB0" offset="0.5863"/>
   <stop stop-color="#0C70AA" offset="0.7977"/>
   <stop stop-color="#0C6CA8" offset="1"/>
  </linearGradient>
  <linearGradient y2="0.04052" x2="0.49581" y1="1.1412" x1="0.49581" id="SVGID_00000181061263882540115650000001380897649941737899_">
   <stop stop-color="#0BC8D6" offset="0"/>
   <stop stop-color="#0BAFC9" offset="0.1537"/>
   <stop stop-color="#0C92BB" offset="0.3707"/>
   <stop stop-color="#0C7DB0" offset="0.5863"/>
   <stop stop-color="#0C70AA" offset="0.7977"/>
   <stop stop-color="#0C6CA8" offset="1"/>
  </linearGradient>
  <linearGradient y2="0.0232" x2="0.49972" y1="1.15414" x1="0.49972" id="SVGID_00000060734850336646022190000016528836047593461891_">
   <stop stop-color="#0BC8D6" offset="0"/>
   <stop stop-color="#0BAFC9" offset="0.1537"/>
   <stop stop-color="#0C92BB" offset="0.3707"/>
   <stop stop-color="#0C7DB0" offset="0.5863"/>
   <stop stop-color="#0C70AA" offset="0.7977"/>
   <stop stop-color="#0C6CA8" offset="1"/>
  </linearGradient>
  <linearGradient y2="1.28882" x2="0.69349" y1="0.04931" x1="0.18048" id="SVGID_00000153671096749316488620000017930939187587703224_">
   <stop stop-color="#0BC8D6" offset="0"/>
   <stop stop-color="#0BAFC9" offset="0.1537"/>
   <stop stop-color="#0C92BB" offset="0.3707"/>
   <stop stop-color="#0C7DB0" offset="0.5863"/>
   <stop stop-color="#0C70AA" offset="0.7977"/>
   <stop stop-color="#0C6CA8" offset="1"/>
  </linearGradient>
  <linearGradient y2="8.0776" x2="1.95396" y1="-1.47101" x1="0.12047" id="SVGID_00000163780021487935462920000001271813285811441054_">
   <stop stop-color="#0BC8D6" offset="0"/>
   <stop stop-color="#0BAFC9" offset="0.1537"/>
   <stop stop-color="#0C92BB" offset="0.3707"/>
   <stop stop-color="#0C7DB0" offset="0.5863"/>
   <stop stop-color="#0C70AA" offset="0.7977"/>
   <stop stop-color="#0C6CA8" offset="1"/>
  </linearGradient>
  <linearGradient y2="6.40241" x2="1.62943" y1="-3.16955" x1="-0.19999" id="SVGID_00000127766872331450306810000013621737198958418568_">
   <stop stop-color="#0BC8D6" offset="0"/>
   <stop stop-color="#0BAFC9" offset="0.1537"/>
   <stop stop-color="#0C92BB" offset="0.3707"/>
   <stop stop-color="#0C7DB0" offset="0.5863"/>
   <stop stop-color="#0C70AA" offset="0.7977"/>
   <stop stop-color="#0C6CA8" offset="1"/>
  </linearGradient>
  <linearGradient y2="-0.03638" x2="0.52231" y1="1.22366" x1="0.46374" id="SVGID_00000075883955441261425240000018050722221126684289_">
   <stop stop-color="#0BC8D6" offset="0"/>
   <stop stop-color="#0BAFC9" offset="0.1537"/>
   <stop stop-color="#0C92BB" offset="0.3707"/>
   <stop stop-color="#0C7DB0" offset="0.5863"/>
   <stop stop-color="#0C70AA" offset="0.7977"/>
   <stop stop-color="#0C6CA8" offset="1"/>
  </linearGradient>
 </defs>
 <g>
  <title>Layer 1</title>
  <g id="svg_1">
   <g id="svg_2">
    <g id="svg_3">
     <path id="svg_4" fill="url(#SVGID_1_)" d="m167.85029,61.6261c-0.8,-0.7 -1.7,-1.1 -2.7,-1.1c-1.2,0 -2.3,0.6 -3.1,1.7l-14,20.9l-13.5,-20.9c-0.3,-0.5 -0.8,-0.9 -1.5,-1.2c-0.6,-0.3 -1.3,-0.5 -1.8,-0.5c-1.1,0 -2,0.4 -2.8,1.1c-0.8,0.7 -1.2,1.6 -1.2,2.7l0,36.2c0,1.1 0.3,2 1,2.7c0.7,0.7 1.5,1.1 2.6,1.1c1.1,0 2,-0.4 2.6,-1.1c0.7,-0.7 1,-1.6 1,-2.7l0,-25.7l10.3,16.3c0.4,0.5 0.8,0.9 1.4,1.2c0.6,0.3 1.1,0.5 1.7,0.4c0.6,0 1.2,-0.1 1.7,-0.4c0.6,-0.3 1,-0.7 1.4,-1.2l10.3,-15.7l0,25.1c0,1.1 0.4,2 1.1,2.7c0.7,0.7 1.7,1.1 2.8,1.1c1.2,0 2.1,-0.4 2.8,-1.1c0.7,-0.7 1.1,-1.6 1.1,-2.7l0,-36.2c0,-1.1 -0.4,-2 -1.2,-2.7z" class="st1"/>
     <path id="svg_5" fill="url(#SVGID_00000127021514121879198480000013189164304632274339_)" d="m212.75029,99.4261l-15.4,-36.6c-0.3,-0.8 -0.8,-1.4 -1.4,-1.8c-0.7,-0.4 -1.3,-0.7 -2.1,-0.7c-0.8,-0.1 -1.5,0.1 -2.2,0.6c-0.7,0.5 -1.2,1.1 -1.5,1.9l-15.5,37.3c-0.1,0.4 -0.2,0.8 -0.2,1.2c0,0.9 0.3,1.7 0.8,2.3s1.4,0.9 2.5,0.9c0.7,0 1.4,-0.2 2,-0.7c0.6,-0.4 1,-1 1.3,-1.8l3.2,-7.6l3,-7.2l6.2,-14.6l6.3,14.6l3.1,7.2l3.2,7.6c0.3,0.8 0.8,1.4 1.4,1.9c0.6,0.5 1.3,0.7 2,0.7c0.9,0 1.7,-0.3 2.4,-1c0.7,-0.7 1.1,-1.6 1.1,-2.7c0.1,-0.5 0,-1 -0.2,-1.5zm-9.5,-12.1l-16.8,0l-3.4,7.2l21.5,0l-1.3,-7.2z"/>
     <path id="svg_6" fill="url(#SVGID_00000043429658796123182940000015889387677703694244_)" d="m254.35029,100.5261c-0.2,-1 -0.8,-1.8 -1.7,-2.3c-0.5,-0.3 -0.9,-0.7 -1.1,-1.2c-0.2,-0.5 -0.3,-1.2 -0.4,-2c-0.1,-0.8 -0.2,-1.7 -0.3,-2.8c-0.1,-1.1 -0.3,-2.2 -0.8,-3.2s-1,-1.9 -1.8,-2.8c-0.5,-0.5 -1.1,-1 -1.7,-1.5c0.9,-0.6 1.7,-1.3 2.5,-2.1c1.1,-1.2 2,-2.6 2.6,-4c0.6,-1.5 1,-3 1,-4.6c0,-2.6 -0.6,-5 -1.8,-7c-1.2,-2 -2.7,-3.6 -4.6,-4.8c-1.9,-1.1 -3.9,-1.7 -6.1,-1.7l-18,0c-1.1,0 -2,0.4 -2.7,1.1c-0.7,0.7 -1.1,1.6 -1.1,2.7l0,36.1c0,1.1 0.5,2 1.4,2.7c0.9,0.7 2,1.1 3.1,1.1c1,0 1.8,-0.4 2.4,-1.1c0.6,-0.7 0.9,-1.6 0.9,-2.7l0,-12.1l11.7,0c1,0 1.8,0.1 2.5,0.3c0.7,0.2 1.3,0.6 1.8,1c0.5,0.4 0.8,1 1.1,1.6c0.2,0.6 0.4,1.3 0.4,2c0,2.2 0.2,3.9 0.7,5.3c0.4,1.4 1,2.5 1.7,3.3c0.7,0.8 1.4,1.4 2.1,1.8c0.5,0.2 1,0.5 1.8,0.6c0.7,0.2 1.4,0.2 2.1,0c0.7,-0.1 1.3,-0.5 1.8,-1c0.4,-0.8 0.7,-1.7 0.5,-2.7zm-10.6,-22.4c-0.5,1.2 -1,2.1 -1.8,2.8c-0.7,0.7 -1.4,1 -2.2,1l-13.7,0l0,0l0,-14.2l0,0l13.7,0c1.1,0 2.2,0.6 3.2,1.8c1,1.2 1.5,2.8 1.5,4.6c0,1.5 -0.3,2.8 -0.7,4z"/>
     <path id="svg_7" fill="url(#SVGID_00000138573542573498750930000010149306291371588497_)" d="m292.25029,96.8261c-0.6,-0.7 -1.3,-1.2 -2.1,-1.3c-0.9,-0.1 -1.7,0 -2.6,0.4c-1,0.5 -2.1,0.9 -3.2,1.1c-1.1,0.2 -2.2,0.3 -3.4,0.3c-2,0 -3.9,-0.3 -5.7,-0.9c-1.8,-0.6 -3.3,-1.5 -4.6,-2.8c-1.3,-1.2 -2.3,-2.8 -3,-4.7c-0.7,-1.9 -1.1,-4.1 -1.1,-6.6c0,-2.2 0.3,-4.1 1,-5.9c0.7,-1.8 1.6,-3.3 2.8,-4.6s2.8,-2.3 4.5,-3c1.8,-0.7 3.8,-1.1 6,-1.1c1.2,0 2.4,0.1 3.5,0.4c1.1,0.2 2.2,0.6 3.2,1.1c0.9,0.4 1.7,0.6 2.6,0.5c0.8,-0.1 1.5,-0.5 2.1,-1.2c0.8,-1 1.1,-2 0.9,-3.2c-0.2,-1.2 -0.8,-2 -1.9,-2.6c-1.5,-0.8 -3.2,-1.4 -4.9,-1.8c-1.8,-0.4 -3.5,-0.6 -5.4,-0.6c-3.2,0 -6.2,0.5 -9,1.7c-2.7,1.1 -5.1,2.6 -7.2,4.6c-2,2 -3.6,4.3 -4.7,7c-1.1,2.7 -1.7,5.7 -1.7,8.9c0,3.7 0.6,7 1.8,9.8c1.2,2.8 2.9,5.2 5,7c2.1,1.9 4.5,3.3 7.2,4.2c2.7,1 5.5,1.4 8.5,1.4c1.2,0 2.4,-0.1 3.6,-0.3c1.2,-0.2 2.3,-0.5 3.5,-0.8c1.1,-0.4 2.2,-0.8 3.3,-1.3c1,-0.5 1.7,-1.3 1.9,-2.4c0.2,-1.1 -0.1,-2.2 -0.9,-3.3z"/>
     <path id="svg_8" fill="url(#SVGID_00000139270942901625426820000001404326870562126223_)" d="m323.85029,61.7261c-0.8,-0.7 -1.6,-1.1 -2.6,-1.1c-1.2,0 -2.1,0.4 -2.9,1.1c-0.8,0.7 -1.1,1.6 -1.1,2.7l0,36.1c0,1.1 0.4,2 1.1,2.7c0.7,0.7 1.6,1.1 2.8,1.1c1,0 1.9,-0.4 2.7,-1.1c0.8,-0.7 1.2,-1.6 1.2,-2.7l0,-36.1c0,-1.1 -0.4,-2 -1.2,-2.7zm-2.8,17l0,7.2l27.8,0l0,-7.2l-27.8,0zm30.6,-17c-0.7,-0.7 -1.7,-1.1 -2.8,-1.1c-1,0 -2,0.4 -2.8,1.1c-0.8,0.7 -1.2,1.6 -1.2,2.7l0,36.1c0,1.1 0.4,2 1.2,2.7c0.8,0.7 1.6,1.1 2.6,1.1c1.2,0 2.2,-0.4 2.9,-1.1c0.7,-0.7 1.1,-1.6 1.1,-2.7l0,-36.1c0.1,-1.1 -0.3,-2 -1,-2.7z"/>
     <path id="svg_9" fill="url(#SVGID_00000068646554504452817860000003528896524159501710_)" d="m400.75029,73.7261c-1,-2.7 -2.5,-5.1 -4.4,-7.1c-1.9,-2.1 -4.1,-3.7 -6.7,-4.8c-2.6,-1.2 -5.4,-1.8 -8.5,-1.8c-3.1,0 -5.9,0.6 -8.5,1.8c-2.6,1.2 -4.8,2.8 -6.7,4.8c-1.9,2.1 -3.4,4.4 -4.4,7.1c-1,2.7 -1.6,5.6 -1.6,8.7c0,3.1 0.5,6 1.6,8.7c1,2.7 2.5,5.1 4.4,7.1c1.9,2.1 4.1,3.7 6.7,4.8c2.6,1.2 5.4,1.8 8.5,1.8c3.1,0 5.9,-0.6 8.5,-1.8c2.6,-1.2 4.9,-2.8 6.7,-4.8c1.9,-2.1 3.4,-4.4 4.4,-7.1c1,-2.7 1.6,-5.6 1.6,-8.7c-0.1,-3.1 -0.6,-6 -1.6,-8.7zm-8.3,16.3c-1.1,2.3 -2.7,4.1 -4.6,5.4c-2,1.3 -4.2,2 -6.8,2c-2.6,0 -4.9,-0.7 -6.8,-2c-2,-1.3 -3.5,-3.1 -4.6,-5.4c-1.1,-2.3 -1.7,-4.8 -1.7,-7.6c0,-2.8 0.6,-5.4 1.7,-7.6c1.1,-2.2 2.6,-4 4.6,-5.4c2,-1.3 4.2,-2 6.8,-2c2.6,0 4.8,0.7 6.8,2c2,1.3 3.5,3.1 4.6,5.4c1.1,2.3 1.7,4.8 1.7,7.6c0,2.8 -0.5,5.3 -1.7,7.6z"/>
     <path id="svg_10" fill="url(#SVGID_00000162344037112188654420000002237572394263877530_)" d="m445.45029,100.5261c-0.2,-1 -0.8,-1.8 -1.7,-2.3c-0.5,-0.3 -0.9,-0.7 -1.1,-1.2c-0.2,-0.5 -0.3,-1.2 -0.4,-2c-0.1,-0.8 -0.2,-1.7 -0.3,-2.8c-0.1,-1.1 -0.4,-2.2 -0.8,-3.2c-0.4,-1 -1,-1.9 -1.8,-2.8c-0.5,-0.5 -1.1,-1 -1.7,-1.5c0.9,-0.6 1.7,-1.3 2.5,-2.1c1.1,-1.2 2,-2.6 2.6,-4c0.6,-1.5 1,-3 1,-4.6c0,-2.6 -0.6,-5 -1.7,-7c-1.2,-2 -2.7,-3.6 -4.6,-4.8c-1.9,-1.1 -3.9,-1.7 -6.1,-1.7l-18,0c-1.1,0 -2,0.4 -2.7,1.1c-0.7,0.7 -1.1,1.6 -1.1,2.7l0,36.1c0,1.1 0.5,2 1.4,2.7c0.9,0.7 2,1.1 3.1,1.1c1,0 1.9,-0.4 2.4,-1.1c0.6,-0.7 0.9,-1.6 0.9,-2.7l0,-12.1l11.7,0c1,0 1.8,0.1 2.5,0.3c0.7,0.2 1.3,0.6 1.8,1c0.4,0.4 0.8,1 1.1,1.6c0.2,0.6 0.4,1.3 0.4,2c0,2.2 0.2,3.9 0.7,5.3s1,2.5 1.7,3.3c0.7,0.8 1.4,1.4 2.1,1.8c0.5,0.2 1,0.5 1.8,0.6c0.7,0.2 1.4,0.2 2.1,0c0.7,-0.1 1.3,-0.5 1.8,-1c0.4,-0.8 0.6,-1.7 0.4,-2.7zm-10.6,-22.4c-0.5,1.2 -1,2.1 -1.8,2.8c-0.7,0.7 -1.4,1 -2.2,1l-13.7,0l0,0l0,-14.2l0,0l13.7,0c1.1,0 2.2,0.6 3.1,1.8c1,1.2 1.5,2.8 1.5,4.6c0.1,1.5 -0.1,2.8 -0.6,4z"/>
     <path id="svg_11" fill="url(#SVGID_00000181061263882540115650000001380897649941737899_)" d="m481.55029,86.4261c-0.6,-1.5 -1.6,-2.7 -2.8,-3.7c-1.2,-1 -2.8,-1.8 -4.7,-2.4c-1.9,-0.6 -4.1,-1.2 -6.6,-1.6c-1.9,-0.4 -3.6,-0.8 -4.9,-1.3c-1.4,-0.5 -2.4,-1.1 -3.2,-1.9c-0.7,-0.8 -1.1,-1.9 -1.1,-3.1c0,-1 0.3,-2 0.9,-2.8c0.6,-0.8 1.5,-1.4 2.8,-1.9c1.2,-0.5 2.7,-0.7 4.5,-0.7c1.1,0 2.2,0.2 3.5,0.5c1.2,0.3 2.4,0.8 3.6,1.3c1.1,0.5 2,1.1 2.7,1.6c0.5,0.4 1.1,0.6 1.7,0.6c1,0 1.8,-0.4 2.5,-1.1c0.7,-0.8 1.1,-1.6 1.1,-2.5c0,-1.2 -0.6,-2.4 -1.8,-3.3c-1.5,-1.2 -3.3,-2.3 -5.7,-3.1s-4.8,-1.2 -7.5,-1.2c-2.9,0 -5.5,0.5 -7.9,1.5c-2.4,1 -4.2,2.5 -5.6,4.4c-1.4,1.9 -2.1,4.2 -2.1,6.9c0,1.8 0.3,3.4 0.9,4.8c0.6,1.4 1.4,2.7 2.6,3.7c1.1,1.1 2.6,1.9 4.3,2.6c1.7,0.7 3.7,1.2 5.9,1.5c2.4,0.3 4.3,0.8 5.9,1.4c1.5,0.6 2.7,1.3 3.4,2.2c0.8,0.9 1.1,1.9 1.1,3.2c0,1 -0.4,2 -1.2,2.8c-0.8,0.8 -1.8,1.5 -3.1,1.9c-1.3,0.5 -2.7,0.7 -4.2,0.7c-2.3,0 -4.2,-0.3 -5.8,-1c-1.6,-0.7 -3.1,-1.6 -4.7,-2.9c-0.6,-0.5 -1.3,-0.8 -2.1,-0.8c-1,0 -1.9,0.4 -2.6,1.1c-0.7,0.7 -1,1.6 -1,2.5c0,0.6 0.1,1.2 0.4,1.8c0.3,0.6 0.7,1.1 1.2,1.6c2.1,1.8 4.3,3.1 6.7,3.8c2.3,0.7 5,1.1 7.9,1.1c2.8,0 5.5,-0.5 7.9,-1.6c2.4,-1 4.4,-2.5 5.9,-4.5c1.5,-2 2.2,-4.3 2.2,-7c-0.1,-1.8 -0.4,-3.6 -1,-5.1z"/>
     <path id="svg_12" fill="url(#SVGID_00000060734850336646022190000016528836047593461891_)" d="m521.05029,61.6261c-0.7,-0.7 -1.6,-1 -2.7,-1l-27.7,0c-1.1,0 -2,0.3 -2.7,1c-0.7,0.7 -1.1,1.5 -1.1,2.6s0.4,2 1.1,2.6c0.7,0.7 1.6,1 2.7,1l27.7,0c1.1,0 2,-0.3 2.7,-1c0.7,-0.6 1.1,-1.5 1.1,-2.6c0,-1.1 -0.4,-2 -1.1,-2.6zm-20.6,2.6l0,36.2c0,1.1 0.4,2 1.1,2.7c0.8,0.7 1.7,1.1 2.9,1.1c1.2,0 2.2,-0.4 3,-1.1c0.8,-0.7 1.2,-1.6 1.2,-2.7l0,-36.2l-8.2,0z"/>
    </g>
    <g id="svg_13">
     <path id="svg_14" d="m130.05029,33.1261c-0.2,-0.2 -0.4,-0.3 -0.7,-0.3c-0.3,0 -0.6,0.1 -0.8,0.3c-0.2,0.2 -0.3,0.4 -0.3,0.7l0,15c0,0.3 0.1,0.5 0.3,0.7c0.2,0.2 0.4,0.3 0.7,0.3c0.3,0 0.5,-0.1 0.7,-0.3c0.2,-0.2 0.3,-0.4 0.3,-0.7l0,-15c0.1,-0.3 0,-0.5 -0.2,-0.7z"/>
     <path id="svg_15" d="m146.35029,33.1261c-0.2,-0.2 -0.4,-0.3 -0.7,-0.3l-11.3,0c-0.3,0 -0.5,0.1 -0.7,0.2c-0.2,0.2 -0.3,0.4 -0.3,0.7c0,0.3 0.1,0.5 0.3,0.7c0.2,0.2 0.4,0.3 0.7,0.3l11.3,0c0.3,0 0.5,-0.1 0.7,-0.3c0.2,-0.2 0.3,-0.4 0.3,-0.7c-0.1,-0.2 -0.1,-0.4 -0.3,-0.6zm-7.4,0.7l0,15c0,0.3 0.1,0.5 0.3,0.7c0.2,0.2 0.4,0.3 0.7,0.3s0.6,-0.1 0.8,-0.3c0.2,-0.2 0.3,-0.4 0.3,-0.7l0,-15l-2.1,0z"/>
     <path id="svg_16" d="m168.65029,47.3261c-0.2,-0.2 -0.3,-0.3 -0.6,-0.3c-0.2,0 -0.5,0 -0.7,0.1c-0.5,0.3 -1.1,0.6 -1.7,0.8c-0.6,0.2 -1.3,0.3 -1.9,0.3c-0.9,0 -1.8,-0.1 -2.6,-0.5c-0.8,-0.3 -1.5,-0.8 -2.1,-1.4c-0.6,-0.6 -1.1,-1.3 -1.4,-2.1c-0.3,-0.8 -0.5,-1.8 -0.5,-2.9c0,-1 0.2,-1.9 0.5,-2.7c0.3,-0.8 0.8,-1.5 1.4,-2.1c0.6,-0.6 1.3,-1.1 2.1,-1.4c0.8,-0.3 1.7,-0.5 2.6,-0.5c0.7,0 1.3,0.1 1.9,0.3c0.6,0.2 1.2,0.4 1.7,0.8c0.2,0.1 0.4,0.2 0.7,0.1c0.2,0 0.4,-0.1 0.6,-0.3c0.2,-0.3 0.3,-0.5 0.2,-0.8c0,-0.3 -0.2,-0.5 -0.5,-0.6c-0.7,-0.4 -1.4,-0.7 -2.2,-1c-0.8,-0.2 -1.6,-0.3 -2.5,-0.3c-1.2,0 -2.4,0.2 -3.4,0.6c-1,0.4 -2,1 -2.7,1.8c-0.8,0.8 -1.4,1.7 -1.8,2.8s-0.7,2.2 -0.7,3.5c0,1.4 0.2,2.6 0.7,3.7c0.5,1.1 1.1,2 1.9,2.8c0.8,0.8 1.7,1.3 2.8,1.7c1,0.4 2.1,0.6 3.3,0.6c0.6,0 1.1,-0.1 1.7,-0.2c0.6,-0.1 1.1,-0.3 1.6,-0.5c0.5,-0.2 1,-0.4 1.4,-0.7c0.3,-0.1 0.4,-0.4 0.5,-0.6c0,-0.4 -0.1,-0.7 -0.3,-1z"/>
     <path id="svg_17" d="m186.55029,37.9261c-0.4,-1.1 -1,-2 -1.7,-2.8c-0.7,-0.8 -1.6,-1.4 -2.6,-1.9c-1,-0.4 -2.1,-0.6 -3.3,-0.6c-1.2,0 -2.3,0.2 -3.3,0.6c-1,0.4 -1.9,1 -2.6,1.9c-0.7,0.8 -1.3,1.7 -1.7,2.8c-0.4,1.1 -0.6,2.2 -0.6,3.5c0,1.2 0.2,2.4 0.6,3.5c0.4,1.1 1,2 1.7,2.8c0.7,0.8 1.6,1.4 2.6,1.8c1,0.4 2.1,0.7 3.3,0.7c1.2,0 2.3,-0.2 3.3,-0.7c1,-0.4 1.9,-1 2.6,-1.8c0.7,-0.8 1.3,-1.7 1.7,-2.8c0.4,-1.1 0.6,-2.2 0.6,-3.5c0,-1.3 -0.2,-2.5 -0.6,-3.5zm-2.3,6.9c-0.5,1 -1.2,1.8 -2.1,2.4c-0.9,0.6 -2,0.9 -3.2,0.9c-1.2,0 -2.2,-0.3 -3.1,-0.9c-0.9,-0.6 -1.6,-1.4 -2.2,-2.4c-0.5,-1 -0.8,-2.2 -0.8,-3.5s0.3,-2.5 0.8,-3.5s1.2,-1.8 2.2,-2.4c0.9,-0.6 2,-0.9 3.1,-0.9c1.2,0 2.3,0.3 3.2,0.9c0.9,0.6 1.6,1.4 2.1,2.4c0.5,1 0.8,2.2 0.8,3.5c0,1.4 -0.2,2.5 -0.8,3.5z"/>
     <path id="svg_18" d="m203.65029,33.1261c-0.2,-0.2 -0.4,-0.3 -0.7,-0.3c-0.3,0 -0.5,0.1 -0.6,0.3c-0.2,0.2 -0.3,0.4 -0.3,0.7l0,12.6l-9.9,-13.2c-0.1,-0.1 -0.2,-0.2 -0.4,-0.3c-0.1,0 -0.3,-0.1 -0.4,-0.1c-0.3,0 -0.5,0.1 -0.7,0.3c-0.2,0.2 -0.3,0.4 -0.3,0.7l0,15.1c0,0.3 0.1,0.5 0.2,0.6c0.2,0.2 0.4,0.3 0.7,0.3c0.3,0 0.5,-0.1 0.7,-0.3c0.2,-0.2 0.2,-0.4 0.2,-0.6l0,-12.5l9.9,13.1c0.1,0.1 0.2,0.2 0.3,0.2c0.1,0.1 0.3,0.1 0.4,0.1c0.3,0 0.5,-0.1 0.7,-0.3c0.2,-0.2 0.3,-0.4 0.3,-0.7l0,-15.1c0.1,-0.2 0,-0.4 -0.1,-0.6z"/>
     <path id="svg_19" d="m218.45029,43.3261c-0.3,-0.6 -0.6,-1 -1.1,-1.4c-0.5,-0.4 -1.1,-0.7 -1.7,-0.9c-0.7,-0.2 -1.4,-0.5 -2.2,-0.7c-0.7,-0.2 -1.4,-0.4 -2,-0.7c-0.6,-0.2 -1.1,-0.6 -1.4,-1c-0.4,-0.4 -0.5,-0.9 -0.5,-1.5c0,-0.5 0.1,-1 0.5,-1.4c0.3,-0.4 0.8,-0.7 1.3,-0.9c0.6,-0.2 1.2,-0.3 2,-0.3c0.5,0 1,0.1 1.5,0.2c0.5,0.1 1,0.3 1.4,0.6c0.4,0.2 0.8,0.5 1.1,0.8c0.1,0.1 0.3,0.2 0.5,0.2c0.3,0 0.5,-0.1 0.7,-0.3c0.2,-0.2 0.3,-0.4 0.3,-0.6c0,-0.3 -0.2,-0.6 -0.5,-0.9c-0.5,-0.6 -1.2,-1 -2.1,-1.3c-0.9,-0.3 -1.8,-0.5 -2.8,-0.5c-1.1,0 -2.1,0.2 -3,0.6c-0.9,0.4 -1.5,0.9 -2,1.6c-0.5,0.7 -0.7,1.5 -0.7,2.4c0,0.8 0.1,1.4 0.4,1.9c0.3,0.5 0.6,1 1.1,1.4c0.5,0.4 1,0.7 1.6,0.9s1.3,0.5 2,0.6c0.9,0.2 1.6,0.5 2.2,0.7c0.6,0.3 1.1,0.6 1.5,1c0.4,0.4 0.6,1 0.6,1.6c0,0.5 -0.2,1 -0.5,1.4c-0.3,0.4 -0.8,0.7 -1.4,0.9c-0.6,0.2 -1.2,0.3 -1.9,0.3c-0.9,0 -1.8,-0.2 -2.5,-0.5s-1.4,-0.8 -2,-1.4c-0.2,-0.2 -0.4,-0.3 -0.6,-0.3c-0.3,0 -0.5,0.1 -0.7,0.3c-0.2,0.2 -0.3,0.4 -0.3,0.7c0,0.2 0,0.3 0.1,0.5c0.1,0.2 0.2,0.3 0.3,0.4c0.8,0.8 1.7,1.3 2.6,1.7c0.9,0.4 2,0.5 3.2,0.5c1.1,0 2.1,-0.2 2.9,-0.6c0.9,-0.4 1.5,-0.9 2,-1.6s0.8,-1.5 0.8,-2.4c-0.3,-0.7 -0.5,-1.4 -0.7,-2z"/>
     <path id="svg_20" d="m234.85029,33.1261c-0.2,-0.2 -0.4,-0.3 -0.7,-0.3c-0.3,0 -0.5,0.1 -0.7,0.3c-0.2,0.2 -0.3,0.4 -0.3,0.7l0,9.7c0,0.9 -0.2,1.7 -0.6,2.4c-0.4,0.7 -1,1.2 -1.7,1.6c-0.7,0.4 -1.5,0.6 -2.3,0.6c-0.8,0 -1.5,-0.2 -2.2,-0.6c-0.7,-0.4 -1.2,-0.9 -1.6,-1.6c-0.4,-0.7 -0.6,-1.5 -0.6,-2.4l0,-9.7c0,-0.3 -0.1,-0.5 -0.3,-0.7c-0.2,-0.2 -0.4,-0.3 -0.7,-0.3c-0.3,0 -0.6,0.1 -0.8,0.3c-0.2,0.2 -0.3,0.4 -0.3,0.7l0,9.7c0,1.2 0.3,2.4 0.9,3.3c0.6,1 1.4,1.8 2.3,2.4c1,0.6 2.1,0.9 3.3,0.9c1.2,0 2.3,-0.3 3.3,-0.9c1,-0.6 1.7,-1.4 2.3,-2.4c0.6,-1 0.9,-2.1 0.9,-3.3l0,-9.7c0,-0.3 -0.1,-0.5 -0.2,-0.7z"/>
     <path id="svg_21" d="m249.45029,48.2261c-0.2,-0.2 -0.4,-0.3 -0.7,-0.3l-7.4,0l0,-14.1c0,-0.3 -0.1,-0.5 -0.3,-0.7c-0.2,-0.2 -0.4,-0.3 -0.7,-0.3c-0.3,0 -0.6,0.1 -0.8,0.3c-0.2,0.2 -0.3,0.4 -0.3,0.7l0,15c0,0.3 0.1,0.5 0.3,0.7c0.2,0.2 0.4,0.3 0.7,0.3l8.4,0c0.3,0 0.5,-0.1 0.7,-0.3c0.2,-0.2 0.3,-0.4 0.3,-0.7c0.1,-0.2 -0.1,-0.4 -0.2,-0.6z"/>
     <path id="svg_22" d="m262.35029,33.1261c-0.2,-0.2 -0.4,-0.3 -0.7,-0.3l-11.3,0c-0.3,0 -0.5,0.1 -0.7,0.2c-0.2,0.2 -0.3,0.4 -0.3,0.7c0,0.3 0.1,0.5 0.3,0.7c0.2,0.2 0.4,0.3 0.7,0.3l11.3,0c0.3,0 0.5,-0.1 0.7,-0.3c0.2,-0.2 0.3,-0.4 0.3,-0.7c0,-0.2 -0.1,-0.4 -0.3,-0.6zm-7.4,0.7l0,15c0,0.3 0.1,0.5 0.3,0.7c0.2,0.2 0.4,0.3 0.7,0.3s0.6,-0.1 0.8,-0.3c0.2,-0.2 0.3,-0.4 0.3,-0.7l0,-15l-2.1,0z"/>
     <path id="svg_23" d="m267.25029,33.1261c-0.2,-0.2 -0.4,-0.3 -0.7,-0.3c-0.3,0 -0.6,0.1 -0.8,0.3c-0.2,0.2 -0.3,0.4 -0.3,0.7l0,15c0,0.3 0.1,0.5 0.3,0.7c0.2,0.2 0.4,0.3 0.7,0.3c0.3,0 0.5,-0.1 0.7,-0.3c0.2,-0.2 0.3,-0.4 0.3,-0.7l0,-15c0.1,-0.3 0,-0.5 -0.2,-0.7z"/>
     <path id="svg_24" d="m285.05029,33.1261c-0.2,-0.2 -0.4,-0.3 -0.7,-0.3c-0.3,0 -0.5,0.1 -0.6,0.3c-0.2,0.2 -0.2,0.4 -0.2,0.7l0,12.6l-9.9,-13.2c-0.1,-0.1 -0.2,-0.2 -0.4,-0.3c-0.2,0 -0.3,-0.1 -0.5,-0.1c-0.2,0 -0.5,0.1 -0.7,0.3c-0.2,0.2 -0.3,0.4 -0.3,0.7l0,15.1c0,0.3 0.1,0.5 0.2,0.6c0.2,0.2 0.4,0.3 0.6,0.3c0.3,0 0.5,-0.1 0.7,-0.3c0.2,-0.2 0.3,-0.4 0.3,-0.6l0,-12.5l9.9,13.1c0.1,0.1 0.2,0.2 0.3,0.2c0.2,0.1 0.3,0.1 0.4,0.1c0.3,0 0.5,-0.1 0.7,-0.3c0.2,-0.2 0.3,-0.4 0.3,-0.7l0,-15.1c0.2,-0.2 0.1,-0.4 -0.1,-0.6z"/>
     <path id="svg_25" d="m302.75029,41.3261c-0.2,-0.2 -0.4,-0.3 -0.7,-0.3l-4.4,0c-0.3,0 -0.5,0.1 -0.7,0.3c-0.2,0.2 -0.3,0.4 -0.3,0.7c0,0.3 0.1,0.5 0.3,0.7c0.2,0.2 0.4,0.3 0.7,0.3l3.3,0l0,4.3c-0.5,0.2 -1,0.4 -1.6,0.6c-0.7,0.2 -1.3,0.3 -2,0.3c-1.3,0 -2.4,-0.3 -3.4,-0.9c-1,-0.6 -1.8,-1.4 -2.4,-2.4c-0.6,-1 -0.9,-2.2 -0.9,-3.5c0,-1.3 0.3,-2.4 0.9,-3.5c0.6,-1 1.4,-1.8 2.4,-2.4s2.2,-0.9 3.4,-0.9c0.6,0 1.3,0.1 1.8,0.2c0.6,0.1 1.1,0.4 1.6,0.6c0.1,0 0.2,0.1 0.3,0.1c0.1,0 0.2,0 0.3,0c0.2,0 0.5,-0.1 0.6,-0.3c0.2,-0.2 0.3,-0.4 0.3,-0.7c0,-0.1 0,-0.3 -0.1,-0.4c-0.1,-0.2 -0.2,-0.3 -0.4,-0.4c-0.6,-0.4 -1.3,-0.7 -2.1,-0.9c-0.8,-0.2 -1.6,-0.3 -2.4,-0.3c-1.2,0 -2.4,0.2 -3.5,0.7c-1.1,0.5 -2,1.1 -2.8,1.9c-0.8,0.8 -1.4,1.7 -1.9,2.8c-0.5,1.1 -0.7,2.2 -0.7,3.4c0,1.2 0.2,2.4 0.7,3.4c0.4,1.1 1.1,2 1.9,2.8c0.8,0.8 1.7,1.4 2.8,1.9c1.1,0.5 2.2,0.7 3.5,0.7c1,0 1.9,-0.1 2.8,-0.4c0.9,-0.3 1.7,-0.6 2.4,-1.1c0.2,-0.1 0.3,-0.2 0.4,-0.4c0.1,-0.1 0.1,-0.3 0.1,-0.5l0,-5.6c0.1,-0.3 0,-0.6 -0.2,-0.8z"/>
     <path id="svg_26" d="m325.65029,41.9261c-0.2,-0.2 -0.4,-0.3 -0.7,-0.3c-0.3,0 -0.5,0 -0.6,0.2c-0.1,0.1 -0.2,0.3 -0.2,0.5c-0.1,0.7 -0.3,1.4 -0.6,2.2c-0.1,0.3 -0.2,0.5 -0.4,0.7c-0.2,0.4 -0.5,0.8 -0.8,1.2c-0.1,0.1 -0.2,0.2 -0.3,0.3c-0.4,0.5 -0.9,0.8 -1.5,1.1c-0.7,0.3 -1.5,0.5 -2.5,0.5c-0.9,0 -1.8,-0.2 -2.4,-0.6c-0.6,-0.4 -1.1,-0.9 -1.4,-1.5s-0.5,-1.2 -0.5,-1.9c0,-0.8 0.2,-1.5 0.7,-2.2c0.4,-0.5 1.1,-1 2,-1.2c0.2,0 0.3,-0.1 0.5,-0.1l-1.3,-1.4c-0.1,0 -0.2,0.1 -0.3,0.1c-0.8,0.3 -1.4,0.7 -1.9,1.2c-0.6,0.5 -1,1.1 -1.3,1.8c-0.3,0.7 -0.4,1.4 -0.4,2.1c0,0.9 0.3,1.8 0.8,2.7c0.5,0.8 1.2,1.5 2.1,2s1.9,0.8 3.1,0.8c1.3,0 2.4,-0.2 3.3,-0.6c1,-0.4 1.8,-1 2.4,-1.7c0.4,-0.5 0.8,-0.9 1.1,-1.5c0.2,-0.3 0.4,-0.6 0.5,-0.9c0.4,-0.9 0.7,-1.8 0.8,-2.7c0,-0.3 0,-0.6 -0.2,-0.8zm1.4,6.6c-0.1,-0.1 -0.2,-0.3 -0.3,-0.4c-0.4,-0.3 -1,-0.8 -1.6,-1.2c-0.2,-0.2 -0.4,-0.4 -0.6,-0.5c-0.4,-0.3 -0.8,-0.7 -1.3,-1.1c0,0 -0.1,-0.1 -0.1,-0.1c-0.6,-0.6 -1.3,-1.2 -1.9,-1.8c-0.7,-0.7 -1.3,-1.3 -1.9,-2c-0.4,-0.5 -0.9,-1 -1.3,-1.5c-0.5,-0.5 -0.8,-1 -1.1,-1.6c-0.3,-0.5 -0.5,-1.1 -0.5,-1.6c0,-0.7 0.2,-1.3 0.7,-1.7c0.5,-0.5 1.1,-0.7 2.1,-0.7c0.8,0 1.5,0.1 2,0.4c0.5,0.3 0.9,0.7 1.2,1.1c0.1,0.1 0.2,0.2 0.3,0.2c0.1,0.1 0.2,0.1 0.4,0.1c0.3,0 0.5,-0.1 0.6,-0.2c0.2,-0.2 0.2,-0.3 0.2,-0.5c0,-0.2 0,-0.3 -0.1,-0.4c0,-0.1 -0.1,-0.2 -0.1,-0.2c-0.3,-0.6 -0.9,-1.1 -1.7,-1.5c-0.8,-0.4 -1.8,-0.6 -2.9,-0.6c-1,0 -1.8,0.2 -2.6,0.6c-0.7,0.4 -1.3,0.9 -1.7,1.5c-0.4,0.6 -0.6,1.3 -0.6,2.1c0,0.6 0.1,1.2 0.4,1.8c0.2,0.3 0.4,0.7 0.6,1c0.2,0.2 0.3,0.5 0.5,0.7c0.2,0.2 0.4,0.5 0.6,0.7c0.3,0.4 0.6,0.8 1,1.2c0.9,1 1.8,1.9 2.6,2.8c0.6,0.6 1.3,1.2 2,1.8c0.2,0.2 0.5,0.4 0.7,0.6c0.2,0.2 0.5,0.4 0.7,0.5c0.7,0.6 1.5,1.2 2.3,1.9c0.1,0 0.1,0.1 0.2,0.1c0.1,0 0.2,0 0.3,0c0.3,0 0.5,-0.1 0.6,-0.3c0.1,-0.2 0.2,-0.4 0.2,-0.6c0.2,-0.3 0.2,-0.5 0.1,-0.6z"/>
     <path id="svg_27" d="m350.35029,38.1261c-0.3,-1 -0.8,-1.9 -1.3,-2.7c-0.6,-0.8 -1.3,-1.4 -2.2,-1.9c-0.9,-0.5 -2,-0.7 -3.2,-0.7l-6,0c-0.3,0 -0.5,0.1 -0.7,0.3c-0.2,0.2 -0.3,0.4 -0.3,0.7l0,15c0,0.3 0.1,0.5 0.3,0.7c0.2,0.2 0.4,0.3 0.7,0.3l6,0c1.6,0 2.9,-0.4 4,-1.1c1.1,-0.8 1.9,-1.8 2.4,-3.1c0.5,-1.3 0.8,-2.7 0.8,-4.3c0,-1.1 -0.2,-2.2 -0.5,-3.2zm-2.2,6.5c-0.4,1 -0.9,1.8 -1.7,2.4c-0.8,0.6 -1.8,0.9 -3.1,0.9l-4.8,0l0,0.2l-0.2,-0.2l0.2,0l0,-13.2l-0.2,0l0.2,-0.2l0,0.2l4.8,0c0.9,0 1.7,0.2 2.4,0.5c0.7,0.3 1.2,0.8 1.7,1.5c0.4,0.6 0.7,1.3 1,2.1c0.2,0.8 0.3,1.6 0.3,2.5c-0.1,1.2 -0.2,2.3 -0.6,3.3z"/>
     <path id="svg_28" d="m363.65029,47.9261l-7.6,0l0,-5.9l6.5,0c0.3,0 0.5,-0.1 0.7,-0.2c0.2,-0.2 0.3,-0.4 0.3,-0.7c0,-0.3 -0.1,-0.5 -0.3,-0.7c-0.2,-0.2 -0.4,-0.3 -0.7,-0.3l-6.5,0l0,-5.5l7.6,0c0.3,0 0.5,-0.1 0.7,-0.2c0.2,-0.2 0.3,-0.4 0.3,-0.7c0,-0.3 -0.1,-0.5 -0.3,-0.7c-0.2,-0.2 -0.4,-0.3 -0.7,-0.3l-8.7,0c-0.3,0 -0.5,0.1 -0.7,0.3c-0.2,0.2 -0.3,0.4 -0.3,0.7l0,15c0,0.3 0.1,0.5 0.3,0.7c0.2,0.2 0.4,0.3 0.7,0.3l8.7,0c0.3,0 0.5,-0.1 0.7,-0.3c0.2,-0.2 0.3,-0.4 0.3,-0.7c0,-0.2 -0.1,-0.5 -0.3,-0.7c-0.2,0 -0.4,-0.1 -0.7,-0.1z"/>
     <path id="svg_29" d="m380.95029,33.1261c-0.2,-0.2 -0.4,-0.3 -0.7,-0.3c-0.4,0 -0.7,0.2 -0.9,0.6l-5.3,13.2l-5.5,-13.2c-0.2,-0.5 -0.5,-0.7 -0.9,-0.7c-0.2,0 -0.4,0.1 -0.7,0.3c-0.2,0.2 -0.3,0.4 -0.3,0.7c0,0.1 0,0.2 0,0.2c0,0.1 0,0.2 0.1,0.2l6.3,15c0.1,0.2 0.2,0.3 0.4,0.4c0.2,0.1 0.3,0.2 0.5,0.2c0.2,0 0.4,-0.1 0.5,-0.2s0.3,-0.3 0.4,-0.5l6.3,-15c0.1,-0.2 0.1,-0.3 0.1,-0.5c0,0 -0.2,-0.3 -0.3,-0.4z"/>
     <path id="svg_30" d="m393.75029,47.9261l-7.6,0l0,-5.9l6.5,0c0.3,0 0.5,-0.1 0.7,-0.2c0.2,-0.2 0.3,-0.4 0.3,-0.7c0,-0.3 -0.1,-0.5 -0.3,-0.7c-0.2,-0.2 -0.4,-0.3 -0.7,-0.3l-6.5,0l0,-5.5l7.6,0c0.3,0 0.5,-0.1 0.7,-0.2c0.2,-0.2 0.3,-0.4 0.3,-0.7c0,-0.3 -0.1,-0.5 -0.3,-0.7c-0.2,-0.2 -0.4,-0.3 -0.7,-0.3l-8.7,0c-0.3,0 -0.5,0.1 -0.7,0.3c-0.2,0.2 -0.3,0.4 -0.3,0.7l0,15c0,0.3 0.1,0.5 0.3,0.7c0.2,0.2 0.4,0.3 0.7,0.3l8.7,0c0.3,0 0.5,-0.1 0.7,-0.3c0.2,-0.2 0.3,-0.4 0.3,-0.7c0,-0.2 -0.1,-0.5 -0.3,-0.7c-0.2,0 -0.4,-0.1 -0.7,-0.1z"/>
     <path id="svg_31" d="m408.05029,48.2261c-0.2,-0.2 -0.4,-0.3 -0.7,-0.3l-7.4,0l0,-14.1c0,-0.3 -0.1,-0.5 -0.3,-0.7c-0.2,-0.2 -0.4,-0.3 -0.7,-0.3c-0.3,0 -0.6,0.1 -0.8,0.3c-0.2,0.2 -0.3,0.4 -0.3,0.7l0,15c0,0.3 0.1,0.5 0.3,0.7c0.2,0.2 0.4,0.3 0.7,0.3l8.4,0c0.3,0 0.5,-0.1 0.7,-0.3s0.3,-0.4 0.3,-0.7c0.1,-0.2 0,-0.4 -0.2,-0.6z"/>
     <path id="svg_32" d="m425.65029,37.9261c-0.4,-1.1 -1,-2 -1.7,-2.8c-0.7,-0.8 -1.6,-1.4 -2.6,-1.9c-1,-0.4 -2.1,-0.6 -3.3,-0.6c-1.2,0 -2.3,0.2 -3.3,0.6c-1,0.4 -1.9,1 -2.6,1.9c-0.7,0.8 -1.3,1.7 -1.7,2.8c-0.4,1.1 -0.6,2.2 -0.6,3.5c0,1.2 0.2,2.4 0.6,3.5c0.4,1.1 1,2 1.7,2.8c0.7,0.8 1.6,1.4 2.6,1.8c1,0.4 2.1,0.7 3.3,0.7c1.2,0 2.3,-0.2 3.3,-0.7c1,-0.4 1.9,-1 2.6,-1.8c0.7,-0.8 1.3,-1.7 1.7,-2.8c0.4,-1.1 0.6,-2.2 0.6,-3.5c0,-1.3 -0.2,-2.5 -0.6,-3.5zm-2.3,6.9c-0.5,1 -1.2,1.8 -2.2,2.4c-0.9,0.6 -2,0.9 -3.2,0.9c-1.2,0 -2.2,-0.3 -3.1,-0.9c-0.9,-0.6 -1.6,-1.4 -2.2,-2.4c-0.5,-1 -0.8,-2.2 -0.8,-3.5s0.3,-2.5 0.8,-3.5c0.5,-1 1.2,-1.8 2.2,-2.4c0.9,-0.6 2,-0.9 3.1,-0.9c1.2,0 2.3,0.3 3.2,0.9c0.9,0.6 1.6,1.4 2.2,2.4c0.5,1 0.8,2.2 0.8,3.5c0,1.4 -0.3,2.5 -0.8,3.5z"/>
     <path id="svg_33" d="m440.15029,35.3261c-0.4,-0.8 -1,-1.4 -1.7,-1.8c-0.7,-0.4 -1.5,-0.6 -2.4,-0.6l-5.7,0c-0.3,0 -0.5,0.1 -0.7,0.3s-0.3,0.4 -0.3,0.7l0,15c0,0.3 0.1,0.5 0.3,0.7c0.2,0.2 0.4,0.3 0.7,0.3c0.3,0 0.5,-0.1 0.7,-0.3c0.2,-0.2 0.3,-0.4 0.3,-0.7l0,-5.8l4.8,0c0.9,0 1.7,-0.2 2.4,-0.7c0.7,-0.5 1.3,-1.1 1.7,-1.9c0.4,-0.8 0.6,-1.6 0.6,-2.6c0,-1 -0.3,-1.9 -0.7,-2.6zm-1.7,4.2c-0.2,0.5 -0.6,0.9 -1,1.2c-0.4,0.3 -0.9,0.4 -1.4,0.4l-4.8,0l0,0.2l-0.2,-0.2l0.2,0l0,-6.4l-0.2,0l0.2,-0.3l0,0.3l4.8,0c0.5,0 1,0.1 1.4,0.4c0.4,0.3 0.7,0.6 1,1.1c0.2,0.5 0.4,1 0.4,1.6c0,0.7 -0.1,1.2 -0.4,1.7z"/>
     <path id="svg_34" d="m453.65029,47.9261l-7.6,0l0,-5.9l6.5,0c0.3,0 0.5,-0.1 0.7,-0.2c0.2,-0.2 0.3,-0.4 0.3,-0.7c0,-0.3 -0.1,-0.5 -0.3,-0.7c-0.2,-0.2 -0.4,-0.3 -0.7,-0.3l-6.5,0l0,-5.5l7.6,0c0.3,0 0.5,-0.1 0.7,-0.2c0.2,-0.2 0.3,-0.4 0.3,-0.7c0,-0.3 -0.1,-0.5 -0.3,-0.7c-0.2,-0.2 -0.4,-0.3 -0.7,-0.3l-8.7,0c-0.3,0 -0.5,0.1 -0.7,0.3c-0.2,0.2 -0.3,0.4 -0.3,0.7l0,15c0,0.3 0.1,0.5 0.3,0.7c0.2,0.2 0.4,0.3 0.7,0.3l8.7,0c0.3,0 0.5,-0.1 0.7,-0.3c0.2,-0.2 0.3,-0.4 0.3,-0.7c0,-0.2 -0.1,-0.5 -0.3,-0.7c-0.2,0 -0.5,-0.1 -0.7,-0.1z"/>
     <path id="svg_35" d="m473.25029,33.1261c-0.2,-0.2 -0.4,-0.3 -0.7,-0.3c-0.3,0 -0.6,0.2 -0.8,0.5l-6.1,9l-6,-9c-0.1,-0.2 -0.2,-0.3 -0.4,-0.3c-0.2,-0.1 -0.3,-0.1 -0.5,-0.1c-0.3,0 -0.5,0.1 -0.7,0.3c-0.2,0.2 -0.3,0.4 -0.3,0.7l0,15c0,0.3 0.1,0.5 0.3,0.7c0.2,0.2 0.4,0.3 0.7,0.3c0.3,0 0.5,-0.1 0.7,-0.3c0.2,-0.2 0.3,-0.4 0.3,-0.7l0,-12.3l5.2,7.9c0.1,0.1 0.2,0.2 0.3,0.3c0.1,0.1 0.3,0.1 0.4,0.1c0.2,0 0.3,0 0.4,-0.1c0.1,-0.1 0.2,-0.2 0.4,-0.3l5.1,-7.8l0,12.2c0,0.3 0.1,0.5 0.3,0.7c0.2,0.2 0.4,0.3 0.7,0.3c0.3,0 0.5,-0.1 0.7,-0.3c0.2,-0.2 0.3,-0.4 0.3,-0.7l0,-15c0.1,-0.4 0,-0.6 -0.3,-0.8z"/>
     <path id="svg_36" d="m487.45029,47.9261l-7.6,0l0,-5.9l6.5,0c0.3,0 0.5,-0.1 0.7,-0.2c0.2,-0.2 0.3,-0.4 0.3,-0.7c0,-0.3 -0.1,-0.5 -0.3,-0.7c-0.2,-0.2 -0.4,-0.3 -0.7,-0.3l-6.5,0l0,-5.5l7.6,0c0.3,0 0.5,-0.1 0.7,-0.2c0.2,-0.2 0.3,-0.4 0.3,-0.7c0,-0.3 -0.1,-0.5 -0.3,-0.7c-0.2,-0.2 -0.4,-0.3 -0.7,-0.3l-8.6,0c-0.3,0 -0.5,0.1 -0.7,0.3c-0.2,0.2 -0.3,0.4 -0.3,0.7l0,15c0,0.3 0.1,0.5 0.3,0.7c0.2,0.2 0.4,0.3 0.7,0.3l8.6,0c0.3,0 0.5,-0.1 0.7,-0.3c0.2,-0.2 0.3,-0.4 0.3,-0.7c0,-0.2 -0.1,-0.5 -0.3,-0.7c-0.2,0 -0.4,-0.1 -0.7,-0.1z"/>
     <path id="svg_37" d="m504.95029,33.1261c-0.2,-0.2 -0.4,-0.3 -0.7,-0.3c-0.3,0 -0.5,0.1 -0.7,0.3c-0.2,0.2 -0.2,0.4 -0.2,0.7l0,12.6l-9.9,-13.2c-0.1,-0.1 -0.2,-0.2 -0.3,-0.3c-0.2,0 -0.3,-0.1 -0.5,-0.1c-0.3,0 -0.5,0.1 -0.7,0.3c-0.2,0.2 -0.3,0.4 -0.3,0.7l0,15.1c0,0.3 0.1,0.5 0.2,0.6c0.2,0.2 0.4,0.3 0.7,0.3c0.3,0 0.5,-0.1 0.7,-0.3c0.2,-0.2 0.3,-0.4 0.3,-0.6l0,-12.5l9.9,13.1c0.1,0.1 0.2,0.2 0.3,0.2c0.1,0.1 0.3,0.1 0.4,0.1c0.3,0 0.5,-0.1 0.7,-0.3c0.2,-0.2 0.3,-0.4 0.3,-0.7l0,-15.1c0.1,-0.2 0,-0.4 -0.2,-0.6z"/>
     <path id="svg_38" d="m521.05029,33.1261c-0.2,-0.2 -0.4,-0.3 -0.7,-0.3l-11.3,0c-0.3,0 -0.5,0.1 -0.7,0.2c-0.2,0.2 -0.3,0.4 -0.3,0.7c0,0.3 0.1,0.5 0.3,0.7c0.2,0.2 0.4,0.3 0.7,0.3l11.3,0c0.3,0 0.5,-0.1 0.7,-0.3c0.2,-0.2 0.3,-0.4 0.3,-0.7c0,-0.2 -0.1,-0.4 -0.3,-0.6zm-7.3,0.7l0,15c0,0.3 0.1,0.5 0.3,0.7c0.2,0.2 0.4,0.3 0.7,0.3s0.6,-0.1 0.8,-0.3c0.2,-0.2 0.3,-0.4 0.3,-0.7l0,-15l-2.1,0z"/>
    </g>
   </g>
   <g id="svg_39">
    <g id="svg_40">
     <path id="svg_41" fill="url(#SVGID_00000153671096749316488620000017930939187587703224_)" d="m98.85029,111.0261c-0.2,0.7 -1.1,1 -1.5,0.4c-5.8,-7.8 -13,-12.7 -22.8,-12.3l-4.4,7.9c-1.2,2.1 -3,3.7 -5.3,4.4c-7.9,2.2 -20.5,3.1 -29.8,0.6c-2.3,-0.6 -4.3,-2.1 -5.5,-4.1l-4.7,-7.7c-9.8,0.1 -16.8,5.3 -22.2,13.4c-0.4,0.6 -1.4,0.5 -1.6,-0.3c-3.4,-13.4 1.4,-25.6 15.2,-36.3c-0.2,-1.7 -0.4,-3.3 -0.6,-5c-3.1,2.6 -6.2,5.2 -9.2,7.8c0.7,-1.6 2,-3.5 3.5,-5.6c1.6,-2 3.5,-4.2 5.5,-6.3c2.4,-2.5 4.9,-4.9 7.1,-6.9c4.8,-4.2 9.9,-7.9 14.6,-10.5c0.3,0.4 0.6,0.9 0.9,1.3c1,1.2 2.2,2.2 3.4,3c5.2,3.3 12.2,3.1 17.2,-1.1c6.2,-5.2 7.1,-14.4 2,-20.7c-5.2,-6.3 -14.4,-7.1 -20.7,-2c-1.8,1.5 -3.2,3.4 -4.1,5.4l0,0c-0.8,1.7 -1.2,3.6 -1.2,5.5c-6.7,4.3 -13,9.4 -19,15.4c-1.7,1.7 -3.4,3.4 -5.1,5.2l-2.5,3.4l-1.1,2c-0.1,0.2 -0.2,0.4 -0.3,0.6c-0.1,0.2 -0.2,0.4 -0.2,0.6l-0.4,1.1c-0.1,0.2 -0.1,0.3 -0.2,0.5l-0.3,1c-0.2,-1.2 -0.2,-2.5 0.1,-3.8c0,0 0,0 0,0.1c0,-0.2 0.1,-0.5 0.2,-0.7c0.4,-1.8 1.2,-3.7 2.4,-5.6c2,-3.6 4.8,-7.5 8.4,-11.1c3.4,-17.8 13.2,-34.3 29.6,-49.3c1.9,-1.7 4.8,-1.8 6.7,-0.1c10.8,9.4 18.7,20.3 23.8,32.7c1.1,-2.8 1.9,-5.6 2.5,-8.3c1,4.1 0.8,8.8 -0.6,13.7c-2.7,9.9 -9.5,20.9 -18.1,29.7c-0.4,0.5 -0.9,0.9 -1.3,1.3c-0.1,-0.1 -0.2,-0.1 -0.3,-0.2c-1.6,-1.2 -3.4,-2 -5.2,-2.4c-1.9,-0.4 -3.8,-0.5 -5.7,-0.2c-3.7,0.6 -7.2,2.5 -9.6,5.8c-4.8,6.5 -3.4,15.7 3.2,20.5c2.6,1.9 5.6,2.8 8.6,2.8c0,0 0,0 0,0c4.5,0 9,-2.1 11.9,-6c1.8,-2.4 2.7,-5.3 2.8,-8.1c0.1,-1.6 -0.1,-3.3 -0.6,-4.9c1.7,-2 3.4,-4 5,-6.1c1.2,-1.6 2.4,-3.2 3.6,-4.9c0.4,-0.6 0.8,-1.1 1.1,-1.7c0.4,-0.5 0.8,-1.1 1.1,-1.7c0.4,-0.6 0.8,-1.2 1.2,-1.8c0.3,-0.5 0.7,-1 1,-1.6c1,-1.7 2,-3.4 2.9,-5.1c0.3,-0.5 0.5,-1 0.8,-1.5c0.3,-0.5 0.5,-1.1 0.8,-1.6c0.4,-0.9 0.8,-1.8 1.2,-2.6c1.5,-3.7 2.3,-7.3 2.2,-10.7c0,-0.2 0,-0.4 0,-0.6c0,-0.1 0,-0.1 0,-0.2c0,-0.2 0,-0.5 -0.1,-0.7l0,-0.1c0,-0.2 -0.1,-0.5 -0.1,-0.7c0,0 0,0 0,0c2.7,6.1 1.4,13.8 -2.3,22.4c0.5,5.3 0.5,10.9 0.2,16.7c0,0 0,0 0,0.1l-0.1,0.6c13.6,10 18.7,21.8 16,35.2z"/>
     <path id="svg_42" fill="url(#SVGID_00000163780021487935462920000001271813285811441054_)" d="m54.15029,48.1261c-3.2,2.7 -8,2.2 -10.6,-1c-2.7,-3.2 -2.2,-8 1,-10.6c3.2,-2.7 8,-2.2 10.6,1c2.6,3.2 2.2,8 -1,10.6z"/>
     <path id="svg_43" fill="url(#SVGID_00000127766872331450306810000013621737198958418568_)" d="m56.25029,86.4261c-2.5,3.3 -7.2,4.1 -10.5,1.6c-3.4,-2.5 -4.1,-7.2 -1.6,-10.5c2.5,-3.4 7.2,-4.1 10.5,-1.6c3.4,2.4 4.1,7.1 1.6,10.5z"/>
    </g>
    <path id="svg_44" fill="url(#SVGID_00000075883955441261425240000018050722221126684289_)" d="m60.45029,137.6261c1.4,-1.9 2.3,-4.2 2.4,-6.8c0.4,-6.7 -4.8,-12.6 -11.5,-13.1c-7,-0.6 -13,4.7 -13.5,11.7c-0.2,2.6 0.4,5 1.6,7.1c1.8,3.1 3.4,6.2 4.9,9.4l4.3,8.7l6.2,-9.2c1.8,-2.8 3.7,-5.3 5.6,-7.8z"/>
   </g>
  </g>
 </g>
</svg>